  <svg width="1000" height="850" class="border" viewBox="0 0 1232 943" fill="none" xmlns="http://www.w3.org/2000/svg">
                            <path d="M166 611C203.659 637.005 294.982 696.817 359.002 728.023C439.028 767.031 424.906 884.053 523.761 903.557C622.616 923.061 895.644 864.55 961.547 915.26C1027.45 965.969 1248.7 1086.89 1229.87 1122" stroke="#E9F0FF"/>
                            <path d="M871.951 684.895H-96V685.417H871.951V684.895Z" fill="#E0E0E0"/>
                            <path d="M166.45 707.018H99.8553V707.54H166.45V707.018Z" fill="#E0E0E0"/>
                            <path d="M85.6652 707.268H48.1862V707.79H85.6652V707.268Z" fill="#E0E0E0"/>
                            <path d="M318.748 706.057H242.783V706.579H318.748V706.057Z" fill="#E0E0E0"/>
                            <path d="M512.958 698.62H288.819V699.142H512.958V698.62Z" fill="#E0E0E0"/>
                            <path d="M704.825 698.891H602.241V699.414H704.825V698.891Z" fill="#E0E0E0"/>
                            <path d="M362.809 591.724H-10.9945C-13.9229 591.718 -16.7295 590.459 -18.7984 588.223C-20.8672 585.986 -22.0292 582.955 -22.0292 579.795V12.7683C-22.0037 9.62642 -20.8305 6.62229 -18.7644 4.40841C-16.6983 2.19454 -13.9062 0.949718 -10.9945 0.944336H362.809C365.741 0.944336 368.552 2.20107 370.625 4.43808C372.698 6.67509 373.863 9.70912 373.863 12.8727V579.795C373.863 582.959 372.698 585.993 370.625 588.23C368.552 590.467 365.741 591.724 362.809 591.724ZM-10.9945 1.36214C-13.7945 1.36768 -16.4781 2.57183 -18.4562 4.7103C-20.4342 6.84876 -21.5452 9.7468 -21.5452 12.7683V579.795C-21.5452 582.817 -20.4342 585.715 -18.4562 587.853C-16.4781 589.992 -13.7945 591.196 -10.9945 591.201H362.809C365.611 591.196 368.296 589.992 370.277 587.854C372.259 585.717 373.374 582.819 373.379 579.795V12.7683C373.374 9.74488 372.259 6.84689 370.277 4.70902C368.296 2.57115 365.611 1.36767 362.809 1.36214H-10.9945Z" fill="#E0E0E0"/>
                            <path d="M781.564 591.724H407.741C404.811 591.718 402.002 590.46 399.931 588.224C397.859 585.988 396.692 582.957 396.687 579.795V12.7683C396.718 9.62452 397.895 6.62041 399.964 4.40711C402.034 2.19381 404.828 0.949659 407.741 0.944336H781.564C784.472 0.955208 787.26 2.20246 789.322 4.41575C791.383 6.62903 792.554 9.63003 792.579 12.7683V579.795C792.579 582.952 791.42 585.979 789.355 588.215C787.291 590.451 784.489 591.713 781.564 591.724ZM407.741 1.36214C404.939 1.36767 402.254 2.57115 400.273 4.70902C398.292 6.84689 397.176 9.74488 397.171 12.7683V579.795C397.176 582.819 398.292 585.717 400.273 587.854C402.254 589.992 404.939 591.196 407.741 591.201H781.564C784.366 591.196 787.051 589.992 789.033 587.854C791.014 585.717 792.129 582.819 792.134 579.795V12.7683C792.129 9.74488 791.014 6.84689 789.033 4.70902C787.051 2.57115 784.366 1.36767 781.564 1.36214H407.741Z" fill="#E0E0E0"/>
                            <path d="M317.78 480.608C316.715 480.608 315.65 480.608 314.566 480.712C307.821 481.226 301.264 483.344 295.367 486.914C289.469 490.485 284.376 495.418 280.454 501.363C276.531 507.307 273.875 514.113 272.678 521.295C271.48 528.477 271.769 535.856 273.525 542.903C278.526 563.945 280.941 585.607 280.707 607.329V670.585C280.707 672.801 281.523 674.926 282.975 676.493C284.428 678.06 286.397 678.941 288.451 678.941H474.53V480.608H317.78Z" fill="#E6E6E6"/>
                            <path d="M520.295 530.055C520.225 517.265 515.567 505 507.298 495.836C499.029 486.671 487.792 481.32 475.945 480.903C464.098 480.487 452.562 485.039 443.758 493.604C434.954 502.168 429.567 514.08 428.726 526.838C428.405 532.251 428.902 537.684 430.198 542.924C435.215 563.964 437.636 585.626 437.399 607.35V670.606C437.399 672.822 438.215 674.947 439.667 676.514C441.12 678.081 443.089 678.962 445.143 678.962H503.898C505.951 678.962 507.921 678.081 509.373 676.514C510.825 674.947 511.641 672.822 511.641 670.606V603.631C511.472 583.261 513.855 562.96 518.727 543.279C519.801 538.968 520.328 534.519 520.295 530.055Z" fill="#F0F0F0"/>
                            <path d="M411.323 558.508H244.312V678.899H411.323V558.508Z" fill="#E6E6E6"/>
                            <path d="M140.955 363.622H295.052C299.621 363.6 304.149 364.552 308.376 366.423C312.603 368.295 316.445 371.049 319.683 374.527C322.921 378.006 325.49 382.14 327.243 386.693C328.996 391.245 329.899 396.127 329.899 401.057V585.728H106.282V401.057C106.282 391.132 109.935 381.614 116.436 374.594C122.938 367.574 131.757 363.627 140.955 363.622Z" fill="#E0E0E0"/>
                            <path d="M182.964 363.622H340.469C344.803 363.622 349.095 364.543 353.1 366.333C357.105 368.123 360.743 370.747 363.808 374.054C366.873 377.362 369.304 381.288 370.963 385.609C372.622 389.931 373.476 394.562 373.476 399.24V585.707H149.86V399.261C149.857 394.573 150.712 389.93 152.376 385.6C154.039 381.269 156.479 377.336 159.555 374.025C162.63 370.713 166.281 368.09 170.298 366.305C174.315 364.52 178.619 363.608 182.964 363.622Z" fill="#F0F0F0"/>
                            <path d="M255.231 547.52H409.174C411.844 547.52 414.404 548.664 416.292 550.701C418.18 552.739 419.241 555.502 419.241 558.383V585.686C419.241 588.567 418.18 591.33 416.292 593.368C414.404 595.405 411.844 596.549 409.174 596.549H255.231C254.435 596.549 253.672 596.208 253.109 595.601C252.546 594.994 252.23 594.17 252.23 593.311V550.758C252.23 549.899 252.546 549.075 253.109 548.468C253.672 547.861 254.435 547.52 255.231 547.52Z" fill="#E0E0E0"/>
                            <path d="M89.8467 480.608C88.7819 480.608 87.7172 480.608 86.6331 480.712C79.8876 481.226 73.331 483.344 67.4333 486.914C61.5356 490.485 56.4429 495.418 52.5203 501.363C48.5977 507.307 45.9423 514.113 44.7444 521.295C43.5466 528.477 43.836 535.856 45.5919 542.903C50.5931 563.945 53.0078 585.607 52.7741 607.329V670.585C52.7741 672.801 53.59 674.926 55.0422 676.493C56.4944 678.06 58.464 678.941 60.5178 678.941H246.577V480.608H89.8467Z" fill="#E6E6E6"/>
                            <path d="M292.323 530.055C292.253 517.265 287.595 505 279.326 495.836C271.057 486.671 259.82 481.32 247.973 480.903C236.126 480.487 224.59 485.039 215.786 493.604C206.982 502.168 201.595 514.08 200.755 526.838C200.433 532.251 200.93 537.684 202.226 542.924C207.243 563.964 209.664 585.626 209.427 607.35V670.606C209.427 672.822 210.243 674.947 211.695 676.514C213.148 678.081 215.117 678.962 217.171 678.962H275.926C277.979 678.962 279.949 678.081 281.401 676.514C282.853 674.947 283.669 672.822 283.669 670.606V603.631C283.5 583.261 285.883 562.96 290.755 543.279C291.829 538.968 292.356 534.519 292.323 530.055Z" fill="#F0F0F0"/>
                            <path d="M471.22 684.916H93.0797C91.601 684.916 90.1829 684.282 89.1373 683.153C88.0917 682.025 87.5043 680.495 87.5043 678.899H476.776C476.776 680.491 476.191 682.018 475.149 683.146C474.108 684.274 472.695 684.91 471.22 684.916Z" fill="#E0E0E0"/>
                            <path d="M181.492 98.001H70.236V222.424H181.492V98.001Z" fill="#E0E0E0"/>
                            <path d="M187.842 98.001H79.3734V222.424H187.842V98.001Z" fill="#F0F0F0"/>
                            <path d="M178.743 212.605V107.799H88.4528V212.605H178.743Z" fill="#FAFAFA"/>
                            <path d="M133.598 133.723L108.915 179.87H158.3L133.598 133.723Z" fill="#F0F0F0"/>
                            <path d="M329.802 150.394H218.546V274.817H329.802V150.394Z" fill="#E0E0E0"/>
                            <path d="M336.132 150.394H227.664V274.817H336.132V150.394Z" fill="#F0F0F0"/>
                            <path d="M327.034 265.019V160.212H236.743V265.019H327.034Z" fill="#FAFAFA"/>
                            <path d="M292.962 231.302L303.667 211.289C304.783 209.195 305.37 206.821 305.368 204.404C305.366 201.988 304.775 199.615 303.656 197.523C302.536 195.43 300.927 193.692 298.989 192.482C297.051 191.272 294.852 190.633 292.613 190.629H271.183C268.943 190.63 266.743 191.268 264.804 192.478C262.865 193.688 261.256 195.427 260.138 197.521C259.019 199.615 258.431 201.99 258.433 204.407C258.435 206.824 259.026 209.197 260.148 211.289L270.854 231.302C271.973 233.398 273.583 235.138 275.524 236.349C277.464 237.559 279.666 238.196 281.908 238.196C284.149 238.196 286.351 237.559 288.291 236.349C290.232 235.138 291.843 233.398 292.962 231.302Z" fill="#F0F0F0"/>
                            <path d="M587.509 388.356H557.096V674.993H587.509V388.356Z" fill="#E6E6E6"/>
                            <path d="M733.554 674.993H565.111V684.874H733.554V674.993Z" fill="#E6E6E6"/>
                            <path d="M587.49 675.014H741.568V388.377H587.49V675.014Z" fill="#F0F0F0"/>
                            <path d="M603.926 588.799H725.152V537.618H603.926V588.799Z" fill="#E6E6E6"/>
                            <path d="M603.926 655.794H725.152V604.613H603.926V655.794Z" fill="#E6E6E6"/>
                            <path d="M682.078 559.699H646.98C645.28 559.699 643.902 561.186 643.902 563.02V563.396C643.902 565.231 645.28 566.718 646.98 566.718H682.078C683.778 566.718 685.156 565.231 685.156 563.396V563.02C685.156 561.186 683.778 559.699 682.078 559.699Z" fill="#F0F0F0"/>
                            <path d="M682.078 626.694H646.98C645.28 626.694 643.902 628.181 643.902 630.016V630.392C643.902 632.226 645.28 633.713 646.98 633.713H682.078C683.778 633.713 685.156 632.226 685.156 630.392V630.016C685.156 628.181 683.778 626.694 682.078 626.694Z" fill="#F0F0F0"/>
                            <path d="M603.926 455.351H725.152V404.17H603.926V455.351Z" fill="#E6E6E6"/>
                            <path d="M603.926 521.825H725.152V470.643H603.926V521.825Z" fill="#E6E6E6"/>
                            <path d="M682.078 426.251H646.98C645.28 426.251 643.902 427.738 643.902 429.573V429.949C643.902 431.783 645.28 433.27 646.98 433.27H682.078C683.778 433.27 685.156 431.783 685.156 429.949V429.573C685.156 427.738 683.778 426.251 682.078 426.251Z" fill="#F0F0F0"/>
                            <path d="M682.078 492.703H646.98C645.28 492.703 643.902 494.19 643.902 496.025V496.401C643.902 498.235 645.28 499.723 646.98 499.723H682.078C683.778 499.723 685.156 498.235 685.156 496.401V496.025C685.156 494.19 683.778 492.703 682.078 492.703Z" fill="#F0F0F0"/>
                            <path d="M701.921 305.547H673.367C673.367 305.547 678.322 324.014 678.322 334.793C678.322 345.573 656.602 388.272 687.653 388.272C718.705 388.272 696.965 345.677 696.965 334.793C696.965 323.909 701.921 305.547 701.921 305.547Z" fill="#F0F0F0"/>
                            <path d="M627.602 330.364C627.583 333.252 626.772 336.069 625.271 338.46C623.77 340.851 621.647 342.709 619.17 343.8C616.692 344.891 613.97 345.165 611.348 344.589C608.726 344.013 606.32 342.612 604.435 340.563C602.549 338.514 601.268 335.908 600.753 333.075C600.238 330.241 600.512 327.306 601.54 324.64C602.569 321.974 604.306 319.696 606.532 318.094C608.758 316.492 611.374 315.637 614.05 315.637C617.653 315.664 621.1 317.228 623.639 319.987C626.177 322.746 627.602 326.476 627.602 330.364Z" fill="#F0F0F0"/>
                            <path d="M650.968 337.384C650.968 340.296 650.168 343.144 648.668 345.566C647.168 347.988 645.037 349.876 642.543 350.99C640.049 352.105 637.305 352.397 634.657 351.828C632.01 351.26 629.578 349.857 627.669 347.798C625.761 345.738 624.461 343.114 623.934 340.257C623.408 337.4 623.678 334.439 624.711 331.748C625.744 329.056 627.493 326.756 629.738 325.138C631.982 323.52 634.621 322.656 637.32 322.656C640.94 322.656 644.411 324.208 646.971 326.97C649.53 329.732 650.968 333.478 650.968 337.384Z" fill="#F0F0F0"/>
                            <path d="M670.927 331.701C670.927 334.614 670.127 337.462 668.627 339.884C667.128 342.306 664.996 344.193 662.502 345.308C660.008 346.423 657.264 346.714 654.617 346.146C651.969 345.578 649.537 344.175 647.629 342.115C645.72 340.056 644.42 337.431 643.893 334.575C643.367 331.718 643.637 328.756 644.67 326.065C645.703 323.374 647.452 321.074 649.697 319.456C651.941 317.837 654.58 316.974 657.279 316.974C660.899 316.974 664.37 318.525 666.93 321.287C669.489 324.049 670.927 327.795 670.927 331.701Z" fill="#F0F0F0"/>
                            <path d="M589.523 337.655V354.367C589.523 373.002 606.229 388.252 626.634 388.252H645.064C665.487 388.252 682.194 373.002 682.194 354.367V337.655H589.523Z" fill="#E6E6E6"/>
                            <path d="M529.994 251.629C519.709 251.629 509.847 247.22 502.575 239.373C495.303 231.526 491.217 220.883 491.217 209.785C491.217 198.688 495.303 188.045 502.575 180.198C509.847 172.35 519.709 167.942 529.994 167.942H534.756V251.629H529.994Z" fill="#E0E0E0"/>
                            <path d="M572.529 219.362C577.409 196.86 564.46 174.35 543.608 169.085C522.756 163.82 501.896 177.793 497.017 200.294C492.138 222.796 505.086 245.305 525.938 250.571C546.791 255.836 567.65 241.863 572.529 219.362Z" fill="#F0F0F0"/>
                            <path d="M536.498 215.029C535.215 215.029 533.984 214.479 533.076 213.499C532.168 212.52 531.658 211.191 531.658 209.806C531.658 208.421 532.168 207.093 533.076 206.113C533.984 205.134 535.215 204.584 536.498 204.584C547.597 204.572 558.239 199.811 566.089 191.344C573.939 182.877 578.356 171.396 578.372 159.419V89.9582C578.372 88.5731 578.882 87.2447 579.789 86.2653C580.697 85.2858 581.928 84.7356 583.212 84.7356C584.495 84.7356 585.726 85.2858 586.634 86.2653C587.541 87.2447 588.051 88.5731 588.051 89.9582V159.419C588.031 174.164 582.592 188.299 572.928 198.724C563.264 209.149 550.163 215.012 536.498 215.029Z" fill="#E0E0E0"/>
                            <path d="M628.976 159.272H537.447L547.668 68.7754H618.755L628.976 159.272Z" fill="#F0F0F0"/>
                            <path d="M387.976 779.236C595.277 779.236 763.328 768.648 763.328 755.588C763.328 742.527 595.277 731.94 387.976 731.94C180.674 731.94 12.6234 742.527 12.6234 755.588C12.6234 768.648 180.674 779.236 387.976 779.236Z" fill="#F5F5F5"/>
                            <path d="M680.858 568.514L677.548 540.751C677.05 536.619 675.177 532.824 672.278 530.072C669.379 527.32 665.651 525.799 661.79 525.794H576.029C572.169 525.798 568.439 524.283 565.539 521.534C562.638 518.784 560.765 514.989 560.271 510.857L542.48 361.951C542.188 359.536 542.377 357.081 543.035 354.752C543.692 352.422 544.803 350.271 546.293 348.441C547.783 346.612 549.617 345.147 551.674 344.144C553.731 343.142 555.962 342.624 558.219 342.627H635.771C638.029 342.627 640.261 342.107 642.317 341.102C644.374 340.097 646.208 338.63 647.698 336.799C649.188 334.968 650.298 332.815 650.956 330.485C651.613 328.154 651.802 325.699 651.51 323.283L648.219 295.498C647.725 291.367 645.852 287.571 642.952 284.822C640.051 282.072 636.322 280.558 632.461 280.562H546.72C542.86 280.56 539.132 279.04 536.235 276.287C533.338 273.534 531.47 269.736 530.981 265.604L514.487 127.728C513.993 123.594 512.121 119.796 509.221 117.043C506.321 114.291 502.591 112.772 498.729 112.77H473.252C470.994 112.771 468.761 113.291 466.704 114.296C464.646 115.301 462.811 116.768 461.32 118.598C459.829 120.428 458.716 122.581 458.057 124.911C457.397 127.242 457.205 129.698 457.494 132.115L472.981 261.176C473.27 263.593 473.078 266.048 472.418 268.379C471.759 270.71 470.646 272.862 469.155 274.693C467.664 276.523 465.829 277.989 463.771 278.994C461.714 279.999 459.481 280.519 457.223 280.52H249.559C245.698 280.518 241.971 278.998 239.074 276.245C236.177 273.492 234.309 269.694 233.82 265.563L217.326 127.686C216.836 123.554 214.968 119.756 212.071 117.003C209.174 114.25 205.447 112.731 201.587 112.729H176.11C173.852 112.729 171.62 113.25 169.562 114.254C167.505 115.259 165.669 116.726 164.178 118.556C162.687 120.387 161.575 122.539 160.915 124.87C160.255 127.2 160.063 129.656 160.352 132.073L175.839 261.134C176.128 263.551 175.936 266.007 175.277 268.337C174.617 270.668 173.505 272.82 172.013 274.651C170.522 276.481 168.687 277.948 166.629 278.953C164.572 279.957 162.34 280.477 160.081 280.478H82.4708C80.2133 280.476 77.9813 280.993 75.9238 281.996C73.8663 282.998 72.0306 284.463 70.5392 286.292C69.0478 288.121 67.935 290.272 67.2752 292.601C66.6153 294.931 66.4235 297.386 66.7126 299.802L70.0423 327.565C70.5323 331.701 72.4032 335.501 75.3041 338.255C78.2051 341.008 81.9371 342.526 85.8006 342.523H171.542C175.402 342.519 179.132 344.033 182.032 346.783C184.933 349.532 186.806 353.328 187.3 357.459L205.11 506.366C205.399 508.782 205.208 511.237 204.548 513.566C203.888 515.896 202.775 518.047 201.284 519.876C199.792 521.705 197.957 523.169 195.899 524.172C193.842 525.174 191.61 525.691 189.352 525.689H111.8C109.541 525.69 107.309 526.21 105.251 527.215C103.194 528.22 101.359 529.686 99.8675 531.517C98.3764 533.347 97.264 535.499 96.6042 537.83C95.9445 540.161 95.7527 542.617 96.0415 545.034L99.3713 572.797C99.8609 576.929 101.729 580.727 104.626 583.48C107.523 586.233 111.25 587.753 115.11 587.755H200.871C204.731 587.751 208.461 589.265 211.361 592.014C214.262 594.764 216.135 598.559 216.629 602.691L233.103 740.567C233.597 744.701 235.469 748.499 238.369 751.252C241.27 754.005 244.999 755.524 248.862 755.525H274.338C276.597 755.524 278.829 755.004 280.886 753.999C282.944 752.994 284.779 751.528 286.27 749.698C287.762 747.867 288.874 745.715 289.534 743.384C290.193 741.053 290.385 738.598 290.096 736.181L274.609 607.12C274.344 604.713 274.554 602.273 275.227 599.961C275.9 597.648 277.02 595.517 278.513 593.706C280.006 591.895 281.838 590.447 283.889 589.457C285.939 588.467 288.16 587.958 290.406 587.963H498.012C501.865 587.946 505.592 589.441 508.499 592.17C511.405 594.899 513.293 598.676 513.809 602.796L530.284 740.672C530.778 744.806 532.65 748.604 535.55 751.356C538.45 754.109 542.18 755.628 546.042 755.629H571.519C573.776 755.629 576.008 755.109 578.065 754.104C580.122 753.099 581.956 751.632 583.445 749.801C584.935 747.97 586.046 745.818 586.703 743.487C587.36 741.156 587.549 738.701 587.258 736.285L571.77 607.224C571.481 604.808 571.673 602.353 572.333 600.024C572.993 597.694 574.106 595.543 575.597 593.714C577.088 591.885 578.924 590.421 580.982 589.418C583.039 588.416 585.271 587.899 587.529 587.901H665.081C667.345 587.904 669.583 587.385 671.646 586.379C673.709 585.373 675.549 583.903 677.042 582.067C678.536 580.232 679.649 578.073 680.308 575.736C680.966 573.399 681.154 570.936 680.858 568.514ZM263.129 510.857L245.338 361.951C245.049 359.536 245.241 357.083 245.9 354.755C246.558 352.427 247.669 350.277 249.159 348.448C250.648 346.62 252.481 345.155 254.536 344.151C256.592 343.147 258.821 342.628 261.077 342.627H468.683C472.544 342.623 476.274 344.138 479.174 346.887C482.075 349.636 483.947 353.432 484.442 357.564L502.194 506.491C502.483 508.907 502.291 511.362 501.631 513.692C500.971 516.021 499.859 518.172 498.367 520.001C496.876 521.83 495.04 523.294 492.983 524.297C490.925 525.299 488.693 525.817 486.436 525.815H278.888C275.025 525.813 271.295 524.294 268.395 521.542C265.495 518.789 263.623 514.991 263.129 510.857Z" fill="#407BFF"/>
                            <path opacity="0.4" d="M680.858 568.514L677.548 540.751C677.05 536.619 675.177 532.824 672.278 530.072C669.379 527.32 665.651 525.799 661.79 525.794H576.029C572.169 525.798 568.439 524.283 565.539 521.534C562.638 518.784 560.765 514.989 560.271 510.857L542.48 361.951C542.188 359.536 542.377 357.081 543.035 354.752C543.692 352.422 544.803 350.271 546.293 348.441C547.783 346.612 549.617 345.147 551.674 344.144C553.731 343.142 555.962 342.624 558.219 342.627H635.771C638.029 342.627 640.261 342.107 642.317 341.102C644.374 340.097 646.208 338.63 647.698 336.799C649.188 334.968 650.298 332.815 650.956 330.485C651.613 328.154 651.802 325.699 651.51 323.283L648.219 295.498C647.725 291.367 645.852 287.571 642.952 284.822C640.051 282.072 636.322 280.558 632.461 280.562H546.72C542.86 280.56 539.132 279.04 536.235 276.287C533.338 273.534 531.47 269.736 530.981 265.604L514.487 127.728C513.993 123.594 512.121 119.796 509.221 117.043C506.321 114.291 502.591 112.772 498.729 112.77H473.252C470.994 112.771 468.761 113.291 466.704 114.296C464.646 115.301 462.811 116.768 461.32 118.598C459.829 120.428 458.716 122.581 458.057 124.911C457.397 127.242 457.205 129.698 457.494 132.115L472.981 261.176C473.27 263.593 473.078 266.048 472.418 268.379C471.759 270.71 470.646 272.862 469.155 274.693C467.664 276.523 465.829 277.989 463.771 278.994C461.714 279.999 459.481 280.519 457.223 280.52H249.559C245.698 280.518 241.971 278.998 239.074 276.245C236.177 273.492 234.309 269.694 233.82 265.563L217.326 127.686C216.836 123.554 214.968 119.756 212.071 117.003C209.174 114.25 205.447 112.731 201.587 112.729H176.11C173.852 112.729 171.62 113.25 169.562 114.254C167.505 115.259 165.669 116.726 164.178 118.556C162.687 120.387 161.575 122.539 160.915 124.87C160.255 127.2 160.063 129.656 160.352 132.073L175.839 261.134C176.128 263.551 175.936 266.007 175.277 268.337C174.617 270.668 173.505 272.82 172.013 274.651C170.522 276.481 168.687 277.948 166.629 278.953C164.572 279.957 162.34 280.477 160.081 280.478H82.4708C80.2133 280.476 77.9813 280.993 75.9238 281.996C73.8663 282.998 72.0306 284.463 70.5392 286.292C69.0478 288.121 67.935 290.272 67.2752 292.601C66.6153 294.931 66.4235 297.386 66.7126 299.802L70.0423 327.565C70.5323 331.701 72.4032 335.501 75.3041 338.255C78.2051 341.008 81.9371 342.526 85.8006 342.523H171.542C175.402 342.519 179.132 344.033 182.032 346.783C184.933 349.532 186.806 353.328 187.3 357.459L205.11 506.366C205.399 508.782 205.208 511.237 204.548 513.566C203.888 515.896 202.775 518.047 201.284 519.876C199.792 521.705 197.957 523.169 195.899 524.172C193.842 525.174 191.61 525.691 189.352 525.689H111.8C109.541 525.69 107.309 526.21 105.251 527.215C103.194 528.22 101.359 529.686 99.8675 531.517C98.3764 533.347 97.264 535.499 96.6042 537.83C95.9445 540.161 95.7527 542.617 96.0415 545.034L99.3713 572.797C99.8609 576.929 101.729 580.727 104.626 583.48C107.523 586.233 111.25 587.753 115.11 587.755H200.871C204.731 587.751 208.461 589.265 211.361 592.014C214.262 594.764 216.135 598.559 216.629 602.691L233.103 740.567C233.597 744.701 235.469 748.499 238.369 751.252C241.27 754.005 244.999 755.524 248.862 755.525H274.338C276.597 755.524 278.829 755.004 280.886 753.999C282.944 752.994 284.779 751.528 286.27 749.698C287.762 747.867 288.874 745.715 289.534 743.384C290.193 741.053 290.385 738.598 290.096 736.181L274.609 607.12C274.344 604.713 274.554 602.273 275.227 599.961C275.9 597.648 277.02 595.517 278.513 593.706C280.006 591.895 281.838 590.447 283.889 589.457C285.939 588.467 288.16 587.958 290.406 587.963H498.012C501.865 587.946 505.592 589.441 508.499 592.17C511.405 594.899 513.293 598.676 513.809 602.796L530.284 740.672C530.778 744.806 532.65 748.604 535.55 751.356C538.45 754.109 542.18 755.628 546.042 755.629H571.519C573.776 755.629 576.008 755.109 578.065 754.104C580.122 753.099 581.956 751.632 583.445 749.801C584.935 747.97 586.046 745.818 586.703 743.487C587.36 741.156 587.549 738.701 587.258 736.285L571.77 607.224C571.481 604.808 571.673 602.353 572.333 600.024C572.993 597.694 574.106 595.543 575.597 593.714C577.088 591.885 578.924 590.421 580.982 589.418C583.039 588.416 585.271 587.899 587.529 587.901H665.081C667.345 587.904 669.583 587.385 671.646 586.379C673.709 585.373 675.549 583.903 677.042 582.067C678.536 580.232 679.649 578.073 680.308 575.736C680.966 573.399 681.154 570.936 680.858 568.514ZM263.129 510.857L245.338 361.951C245.049 359.536 245.241 357.083 245.9 354.755C246.558 352.427 247.669 350.277 249.159 348.448C250.648 346.62 252.481 345.155 254.536 344.151C256.592 343.147 258.821 342.628 261.077 342.627H468.683C472.544 342.623 476.274 344.138 479.174 346.887C482.075 349.636 483.947 353.432 484.442 357.564L502.194 506.491C502.483 508.907 502.291 511.362 501.631 513.692C500.971 516.021 499.859 518.172 498.367 520.001C496.876 521.83 495.04 523.294 492.983 524.297C490.925 525.299 488.693 525.817 486.436 525.815H278.888C275.025 525.813 271.295 524.294 268.395 521.542C265.495 518.789 263.623 514.991 263.129 510.857Z" fill="black"/>
                            <path d="M315.283 668.83L313.347 652.953L315.283 652.682L317.218 668.558L315.283 668.83ZM586.89 455.331L580.075 398.404L582.011 398.154L588.806 455.059L586.89 455.331ZM264.91 247.597L262.142 224.743L264.078 224.471L266.827 247.451L264.91 247.597ZM260.496 210.684L255.85 171.89L257.786 171.619L262.413 210.412L260.496 210.684Z" fill="#407BFF"/>
                            <path opacity="0.3" d="M315.283 668.83L313.347 652.953L315.283 652.682L317.218 668.558L315.283 668.83ZM586.89 455.331L580.075 398.404L582.011 398.154L588.806 455.059L586.89 455.331ZM264.91 247.597L262.142 224.743L264.078 224.471L266.827 247.451L264.91 247.597ZM260.496 210.684L255.85 171.89L257.786 171.619L262.413 210.412L260.496 210.684Z" fill="black"/>
                            <path d="M709.336 568.514L706.006 540.751C705.512 536.618 703.64 532.819 700.74 530.067C697.84 527.314 694.11 525.795 690.248 525.794H604.487C600.63 525.792 596.905 524.276 594.008 521.527C591.112 518.778 589.242 514.985 588.748 510.857L570.938 361.951C570.652 359.535 570.846 357.082 571.507 354.754C572.168 352.425 573.281 350.276 574.772 348.448C576.263 346.62 578.097 345.155 580.153 344.151C582.209 343.148 584.44 342.628 586.696 342.627H664.248C666.507 342.626 668.739 342.106 670.797 341.101C672.854 340.096 674.69 338.63 676.181 336.8C677.672 334.969 678.784 332.817 679.444 330.486C680.104 328.155 680.296 325.7 680.007 323.283L676.58 295.498C676.09 291.368 674.221 287.573 671.324 284.823C668.427 282.074 664.7 280.559 660.841 280.562H575.081C571.218 280.561 567.489 279.042 564.589 276.289C561.688 273.536 559.816 269.738 559.323 265.604L542.848 127.728C542.354 123.594 540.482 119.796 537.582 117.043C534.682 114.291 530.952 112.772 527.09 112.77H501.613C499.355 112.771 497.122 113.291 495.065 114.296C493.007 115.301 491.172 116.768 489.681 118.598C488.19 120.428 487.077 122.581 486.418 124.911C485.758 127.242 485.566 129.698 485.855 132.115L501.342 261.176C501.631 263.593 501.439 266.048 500.779 268.379C500.12 270.71 499.007 272.862 497.516 274.693C496.025 276.523 494.19 277.989 492.132 278.994C490.075 279.999 487.842 280.519 485.584 280.52H277.939C274.079 280.531 270.347 279.025 267.44 276.284C264.533 273.543 262.65 269.755 262.142 265.625L245.668 127.749C245.174 123.615 243.302 119.817 240.401 117.064C237.501 114.312 233.772 112.793 229.909 112.791H204.471C202.214 112.792 199.982 113.312 197.925 114.317C195.869 115.322 194.034 116.789 192.545 118.62C191.055 120.45 189.945 122.603 189.287 124.934C188.63 127.265 188.441 129.72 188.733 132.136L204.22 261.196C204.509 263.613 204.317 266.069 203.657 268.4C202.997 270.731 201.885 272.883 200.394 274.713C198.903 276.544 197.067 278.01 195.01 279.015C192.952 280.02 190.72 280.54 188.462 280.541H110.851C108.594 280.539 106.362 281.056 104.304 282.059C102.247 283.061 100.411 284.526 98.9196 286.354C97.4282 288.183 96.3154 290.334 95.6556 292.664C94.9957 294.994 94.8039 297.448 95.093 299.864L98.4034 327.628C98.8973 331.761 100.769 335.56 103.669 338.312C106.569 341.065 110.299 342.584 114.162 342.585H199.922C203.783 342.581 207.512 344.096 210.413 346.845C213.313 349.595 215.186 353.39 215.68 357.522L233.471 506.491C233.763 508.906 233.574 511.36 232.917 513.69C232.259 516.02 231.148 518.171 229.659 520C228.169 521.83 226.334 523.295 224.277 524.297C222.221 525.3 219.989 525.817 217.732 525.815H140.18C137.922 525.815 135.691 526.335 133.634 527.34C131.577 528.345 129.743 529.812 128.253 531.643C126.764 533.474 125.653 535.626 124.996 537.957C124.338 540.288 124.149 542.743 124.441 545.159L127.752 572.922C128.246 577.056 130.118 580.854 133.018 583.607C135.918 586.36 139.648 587.879 143.51 587.88H229.232C233.09 587.877 236.817 589.392 239.715 592.141C242.612 594.891 244.481 598.686 244.971 602.816L261.464 740.693C261.958 744.826 263.83 748.625 266.73 751.377C269.631 754.13 273.36 755.649 277.223 755.65H302.796C305.054 755.65 307.287 755.129 309.344 754.125C311.402 753.12 313.237 751.653 314.728 749.823C316.219 747.992 317.332 745.84 317.992 743.509C318.651 741.179 318.843 738.723 318.554 736.306L303.067 607.245C302.778 604.829 302.97 602.374 303.63 600.045C304.289 597.715 305.402 595.564 306.894 593.735C308.385 591.906 310.221 590.442 312.278 589.439C314.336 588.437 316.568 587.919 318.825 587.922H526.393C530.25 587.923 533.975 589.44 536.871 592.188C539.768 594.937 541.638 598.73 542.132 602.858L558.626 740.735C559.115 744.867 560.983 748.664 563.88 751.417C566.777 754.17 570.504 755.69 574.364 755.692H599.841C602.099 755.691 604.332 755.171 606.389 754.166C608.447 753.161 610.282 751.695 611.773 749.865C613.264 748.034 614.377 745.882 615.036 743.551C615.696 741.22 615.888 738.765 615.599 736.348L600.112 607.287C599.823 604.873 600.014 602.42 600.673 600.091C601.332 597.763 602.443 595.613 603.932 593.785C605.421 591.956 607.255 590.491 609.31 589.488C611.365 588.484 613.595 587.964 615.851 587.963H693.422C695.703 587.989 697.962 587.484 700.046 586.483C702.13 585.483 703.99 584.01 705.5 582.165C707.009 580.32 708.133 578.146 708.795 575.79C709.457 573.435 709.641 570.954 709.336 568.514ZM291.606 510.857L273.757 361.951C273.472 359.535 273.666 357.082 274.327 354.754C274.988 352.425 276.101 350.276 277.592 348.448C279.082 346.62 280.917 345.155 282.973 344.151C285.029 343.148 287.259 342.628 289.516 342.627H497.064C500.923 342.628 504.651 344.144 507.55 346.892C510.45 349.641 512.324 353.434 512.822 357.564L530.613 506.491C530.902 508.905 530.711 511.358 530.052 513.687C529.393 516.015 528.282 518.165 526.793 519.993C525.304 521.822 523.47 523.287 521.415 524.29C519.36 525.294 517.13 525.814 514.874 525.815H307.268C303.404 525.818 299.672 524.3 296.771 521.547C293.87 518.793 292 514.993 291.51 510.857H291.606Z" fill="#407BFF"/>
                            <path opacity="0.3" d="M709.336 568.514L706.006 540.751C705.512 536.618 703.64 532.819 700.74 530.067C697.84 527.314 694.11 525.795 690.248 525.794H604.487C600.63 525.792 596.905 524.276 594.008 521.527C591.112 518.778 589.242 514.985 588.748 510.857L570.938 361.951C570.652 359.535 570.846 357.082 571.507 354.754C572.168 352.425 573.281 350.276 574.772 348.448C576.263 346.62 578.097 345.155 580.153 344.151C582.209 343.148 584.44 342.628 586.696 342.627H664.248C666.507 342.626 668.739 342.106 670.797 341.101C672.854 340.096 674.69 338.63 676.181 336.8C677.672 334.969 678.784 332.817 679.444 330.486C680.104 328.155 680.296 325.7 680.007 323.283L676.58 295.498C676.09 291.368 674.221 287.573 671.324 284.823C668.427 282.074 664.7 280.559 660.841 280.562H575.081C571.218 280.561 567.489 279.042 564.589 276.289C561.688 273.536 559.816 269.738 559.323 265.604L542.848 127.728C542.354 123.594 540.482 119.796 537.582 117.043C534.682 114.291 530.952 112.772 527.09 112.77H501.613C499.355 112.771 497.122 113.291 495.065 114.296C493.007 115.301 491.172 116.768 489.681 118.598C488.19 120.428 487.077 122.581 486.418 124.911C485.758 127.242 485.566 129.698 485.855 132.115L501.342 261.176C501.631 263.593 501.439 266.048 500.779 268.379C500.12 270.71 499.007 272.862 497.516 274.693C496.025 276.523 494.19 277.989 492.132 278.994C490.075 279.999 487.842 280.519 485.584 280.52H277.939C274.079 280.531 270.347 279.025 267.44 276.284C264.533 273.543 262.65 269.755 262.142 265.625L245.668 127.749C245.174 123.615 243.302 119.817 240.401 117.064C237.501 114.312 233.772 112.793 229.909 112.791H204.471C202.214 112.792 199.982 113.312 197.925 114.317C195.869 115.322 194.034 116.789 192.545 118.62C191.055 120.45 189.945 122.603 189.287 124.934C188.63 127.265 188.441 129.72 188.733 132.136L204.22 261.196C204.509 263.613 204.317 266.069 203.657 268.4C202.997 270.731 201.885 272.883 200.394 274.713C198.903 276.544 197.067 278.01 195.01 279.015C192.952 280.02 190.72 280.54 188.462 280.541H110.851C108.594 280.539 106.362 281.056 104.304 282.059C102.247 283.061 100.411 284.526 98.9196 286.354C97.4282 288.183 96.3154 290.334 95.6556 292.664C94.9957 294.994 94.8039 297.448 95.093 299.864L98.4034 327.628C98.8973 331.761 100.769 335.56 103.669 338.312C106.569 341.065 110.299 342.584 114.162 342.585H199.922C203.783 342.581 207.512 344.096 210.413 346.845C213.313 349.595 215.186 353.39 215.68 357.522L233.471 506.491C233.763 508.906 233.574 511.36 232.917 513.69C232.259 516.02 231.148 518.171 229.659 520C228.169 521.83 226.334 523.295 224.277 524.297C222.221 525.3 219.989 525.817 217.732 525.815H140.18C137.922 525.815 135.691 526.335 133.634 527.34C131.577 528.345 129.743 529.812 128.253 531.643C126.764 533.474 125.653 535.626 124.996 537.957C124.338 540.288 124.149 542.743 124.441 545.159L127.752 572.922C128.246 577.056 130.118 580.854 133.018 583.607C135.918 586.36 139.648 587.879 143.51 587.88H229.232C233.09 587.877 236.817 589.392 239.715 592.141C242.612 594.891 244.481 598.686 244.971 602.816L261.464 740.693C261.958 744.826 263.83 748.625 266.73 751.377C269.631 754.13 273.36 755.649 277.223 755.65H302.796C305.054 755.65 307.287 755.129 309.344 754.125C311.402 753.12 313.237 751.653 314.728 749.823C316.219 747.992 317.332 745.84 317.992 743.509C318.651 741.179 318.843 738.723 318.554 736.306L303.067 607.245C302.778 604.829 302.97 602.374 303.63 600.045C304.289 597.715 305.402 595.564 306.894 593.735C308.385 591.906 310.221 590.442 312.278 589.439C314.336 588.437 316.568 587.919 318.825 587.922H526.393C530.25 587.923 533.975 589.44 536.871 592.188C539.768 594.937 541.638 598.73 542.132 602.858L558.626 740.735C559.115 744.867 560.983 748.664 563.88 751.417C566.777 754.17 570.504 755.69 574.364 755.692H599.841C602.099 755.691 604.332 755.171 606.389 754.166C608.447 753.161 610.282 751.695 611.773 749.865C613.264 748.034 614.377 745.882 615.036 743.551C615.696 741.22 615.888 738.765 615.599 736.348L600.112 607.287C599.823 604.873 600.014 602.42 600.673 600.091C601.332 597.763 602.443 595.613 603.932 593.785C605.421 591.956 607.255 590.491 609.31 589.488C611.365 588.484 613.595 587.964 615.851 587.963H693.422C695.703 587.989 697.962 587.484 700.046 586.483C702.13 585.483 703.99 584.01 705.5 582.165C707.009 580.32 708.133 578.146 708.795 575.79C709.457 573.435 709.641 570.954 709.336 568.514ZM291.606 510.857L273.757 361.951C273.472 359.535 273.666 357.082 274.327 354.754C274.988 352.425 276.101 350.276 277.592 348.448C279.082 346.62 280.917 345.155 282.973 344.151C285.029 343.148 287.259 342.628 289.516 342.627H497.064C500.923 342.628 504.651 344.144 507.55 346.892C510.45 349.641 512.324 353.434 512.822 357.564L530.613 506.491C530.902 508.905 530.711 511.358 530.052 513.687C529.393 516.015 528.282 518.165 526.793 519.993C525.304 521.822 523.47 523.287 521.415 524.29C519.36 525.294 517.13 525.814 514.874 525.815H307.268C303.404 525.818 299.672 524.3 296.771 521.547C293.87 518.793 292 514.993 291.51 510.857H291.606Z" fill="black"/>
                            <path d="M599.841 749.571H574.364C571.858 749.568 569.438 748.58 567.557 746.793C565.676 745.005 564.463 742.54 564.143 739.857L547.649 601.981C546.972 596.402 544.439 591.278 540.521 587.566C536.603 583.853 531.568 581.804 526.354 581.801H318.786C315.736 581.797 312.719 582.496 309.939 583.851C307.158 585.206 304.677 587.185 302.662 589.656C300.646 592.128 299.143 595.035 298.251 598.183C297.359 601.331 297.101 604.649 297.492 607.914L312.979 736.974C313.166 738.543 313.041 740.137 312.612 741.65C312.182 743.162 311.459 744.558 310.489 745.745C309.52 746.931 308.327 747.881 306.99 748.53C305.653 749.179 304.204 749.513 302.738 749.509H277.242C274.732 749.51 272.308 748.525 270.423 746.737C268.538 744.949 267.321 742.481 267.001 739.795L250.527 601.918C249.842 596.343 247.307 591.225 243.391 587.513C239.474 583.802 234.443 581.75 229.232 581.738H143.471C140.964 581.731 138.544 580.743 136.66 578.956C134.777 577.17 133.558 574.707 133.23 572.024L129.92 544.261C129.733 542.694 129.857 541.102 130.285 539.591C130.714 538.08 131.435 536.685 132.403 535.498C133.37 534.312 134.561 533.362 135.895 532.712C137.229 532.061 138.677 531.726 140.141 531.727H217.713C220.763 531.727 223.778 531.025 226.557 529.67C229.336 528.314 231.815 526.335 233.83 523.864C235.845 521.394 237.349 518.488 238.242 515.341C239.134 512.194 239.396 508.878 239.008 505.614L221.198 356.728C220.522 351.147 217.989 346.021 214.072 342.305C210.154 338.589 205.119 336.535 199.903 336.527H114.142C111.639 336.525 109.221 335.54 107.341 333.757C105.46 331.973 104.245 329.513 103.921 326.834L100.591 299.05C100.403 297.481 100.529 295.887 100.958 294.375C101.387 292.862 102.111 291.466 103.08 290.279C104.05 289.093 105.243 288.143 106.579 287.494C107.916 286.845 109.366 286.512 110.832 286.516H188.384C191.435 286.519 194.451 285.82 197.232 284.465C200.012 283.111 202.493 281.132 204.509 278.66C206.524 276.189 208.028 273.282 208.919 270.134C209.811 266.985 210.07 263.668 209.679 260.403L194.192 131.342C194.005 129.775 194.129 128.183 194.557 126.672C194.986 125.161 195.707 123.766 196.675 122.58C197.642 121.393 198.833 120.443 200.167 119.793C201.501 119.143 202.949 118.807 204.413 118.808H229.89C232.397 118.815 234.817 119.803 236.701 121.59C238.584 123.376 239.803 125.839 240.131 128.522L256.605 266.398C257.286 271.976 259.82 277.096 263.737 280.808C267.654 284.52 272.687 286.571 277.9 286.578H485.545C488.596 286.582 491.612 285.883 494.393 284.528C497.174 283.174 499.654 281.195 501.67 278.723C503.685 276.252 505.189 273.345 506.081 270.196C506.972 267.048 507.231 263.73 506.84 260.465L491.353 131.405C491.166 129.838 491.29 128.245 491.718 126.734C492.147 125.223 492.868 123.828 493.836 122.642C494.803 121.456 495.994 120.506 497.328 119.856C498.663 119.205 500.11 118.869 501.574 118.871H527.051C529.557 118.882 531.975 119.872 533.857 121.658C535.74 123.443 536.96 125.904 537.292 128.585L553.766 266.461C554.443 272.04 556.976 277.163 560.894 280.876C564.812 284.589 569.847 286.638 575.061 286.641H660.938C663.443 286.649 665.861 287.638 667.741 289.425C669.621 291.211 670.836 293.674 671.16 296.355L674.489 324.056C674.677 325.624 674.552 327.218 674.122 328.731C673.693 330.243 672.969 331.64 672 332.826C671.031 334.013 669.838 334.962 668.501 335.611C667.164 336.26 665.714 336.594 664.248 336.59H586.599C583.549 336.59 580.535 337.291 577.755 338.647C574.976 340.002 572.497 341.982 570.482 344.452C568.467 346.923 566.963 349.828 566.071 352.975C565.178 356.122 564.917 359.438 565.304 362.703L583.115 511.609C583.791 517.188 586.324 522.312 590.242 526.025C594.16 529.737 599.195 531.786 604.41 531.789H690.17C692.679 531.792 695.101 532.779 696.985 534.566C698.869 536.353 700.087 538.819 700.411 541.503L703.721 569.267C703.909 570.834 703.784 572.426 703.356 573.937C702.928 575.448 702.206 576.843 701.239 578.029C700.271 579.215 699.081 580.165 697.746 580.816C696.412 581.466 694.964 581.802 693.5 581.801H615.928C612.875 581.791 609.856 582.485 607.072 583.837C604.289 585.19 601.805 587.169 599.789 589.642C597.772 592.115 596.268 595.025 595.379 598.176C594.49 601.327 594.236 604.648 594.633 607.914L610.121 736.974C610.301 738.542 610.172 740.133 609.74 741.643C609.308 743.152 608.585 744.546 607.616 745.731C606.648 746.916 605.458 747.865 604.124 748.517C602.79 749.168 601.344 749.506 599.88 749.509L599.841 749.571ZM318.786 581.32H526.393C531.719 581.333 536.86 583.433 540.859 587.229C544.858 591.026 547.443 596.261 548.133 601.96L564.627 739.836C564.931 742.381 566.079 744.721 567.859 746.422C569.638 748.123 571.929 749.072 574.306 749.091H599.783C601.175 749.083 602.55 748.755 603.816 748.13C605.082 747.504 606.211 746.595 607.126 745.463C608.042 744.331 608.723 743.002 609.126 741.563C609.529 740.125 609.644 738.61 609.462 737.121L593.975 608.06C593.576 604.723 593.841 601.333 594.752 598.115C595.663 594.897 597.199 591.926 599.258 589.4C601.318 586.873 603.852 584.85 606.693 583.464C609.534 582.078 612.617 581.361 615.735 581.362H693.287C694.679 581.354 696.054 581.027 697.32 580.401C698.586 579.776 699.715 578.867 700.63 577.735C701.546 576.602 702.228 575.273 702.63 573.835C703.033 572.396 703.148 570.882 702.966 569.392L699.637 541.629C699.333 539.084 698.184 536.745 696.405 535.043C694.625 533.342 692.335 532.394 689.957 532.374H604.197C598.871 532.358 593.733 530.256 589.734 526.46C585.736 522.665 583.15 517.432 582.456 511.735L564.646 362.828C564.247 359.491 564.512 356.101 565.423 352.883C566.334 349.665 567.87 346.694 569.929 344.168C571.989 341.641 574.523 339.618 577.364 338.232C580.205 336.846 583.288 336.129 586.406 336.13H663.958C665.35 336.122 666.725 335.795 667.991 335.169C669.258 334.544 670.386 333.635 671.301 332.503C672.217 331.37 672.899 330.041 673.301 328.603C673.704 327.164 673.819 325.65 673.638 324.16L670.617 296.355C670.306 293.814 669.155 291.479 667.377 289.78C665.599 288.08 663.313 287.129 660.938 287.101H575.177C569.849 287.089 564.705 284.99 560.703 281.194C556.701 277.397 554.112 272.162 553.418 266.461L536.943 128.585C536.635 126.042 535.486 123.705 533.707 122.004C531.929 120.303 529.64 119.354 527.264 119.33H501.613C500.222 119.341 498.848 119.671 497.584 120.298C496.319 120.924 495.192 121.833 494.277 122.965C493.362 124.096 492.68 125.424 492.276 126.861C491.872 128.298 491.756 129.811 491.934 131.3L507.421 260.361C507.833 263.715 507.574 267.125 506.662 270.362C505.75 273.599 504.205 276.587 502.132 279.125C500.059 281.663 497.506 283.692 494.644 285.075C491.783 286.458 488.68 287.163 485.545 287.142H277.939C272.61 287.131 267.467 285.032 263.465 281.235C259.462 277.439 256.874 272.204 256.179 266.503L239.705 128.626C239.397 126.084 238.247 123.747 236.469 122.046C234.69 120.345 232.402 119.396 230.025 119.372H204.471C203.079 119.38 201.704 119.707 200.438 120.333C199.172 120.958 198.044 121.867 197.128 123C196.212 124.132 195.531 125.461 195.128 126.899C194.725 128.338 194.611 129.852 194.792 131.342L210.279 260.403C210.685 263.753 210.422 267.159 209.507 270.391C208.592 273.622 207.046 276.605 204.974 279.138C202.901 281.672 200.35 283.697 197.492 285.077C194.634 286.458 191.535 287.162 188.403 287.142H110.851C109.46 287.154 108.086 287.483 106.822 288.11C105.557 288.737 104.43 289.646 103.515 290.777C102.6 291.908 101.918 293.236 101.514 294.673C101.11 296.11 100.994 297.623 101.172 299.113L104.405 326.834C104.713 329.377 105.862 331.714 107.641 333.414C109.419 335.115 111.708 336.065 114.084 336.088H199.845C205.173 336.1 210.317 338.199 214.319 341.996C218.321 345.792 220.91 351.027 221.604 356.728L239.395 505.635C239.797 508.97 239.535 512.36 238.626 515.578C237.718 518.796 236.183 521.767 234.126 524.294C232.068 526.821 229.534 528.845 226.694 530.231C223.854 531.617 220.772 532.334 217.655 532.332H140.18C138.788 532.34 137.413 532.668 136.147 533.293C134.88 533.919 133.752 534.828 132.837 535.96C131.921 537.092 131.239 538.422 130.837 539.86C130.434 541.298 130.319 542.813 130.501 544.303L133.811 572.066C134.119 574.609 135.268 576.946 137.047 578.646C138.826 580.347 141.114 581.297 143.49 581.32H229.232C234.558 581.333 239.699 583.433 243.698 587.229C247.697 591.026 250.282 596.261 250.972 601.96L267.466 739.836C267.77 742.381 268.918 744.721 270.698 746.422C272.477 748.123 274.768 749.072 277.145 749.091H302.796C304.188 749.083 305.563 748.755 306.829 748.13C308.095 747.504 309.224 746.595 310.139 745.463C311.055 744.331 311.737 743.002 312.139 741.563C312.542 740.125 312.657 738.61 312.475 737.121L296.988 608.06C296.589 604.723 296.854 601.333 297.765 598.115C298.676 594.897 300.212 591.926 302.272 589.4C304.331 586.873 306.865 584.85 309.706 583.464C312.548 582.078 315.63 581.361 318.748 581.362L318.786 581.32ZM514.874 532.332H307.268C301.939 532.321 296.796 530.222 292.794 526.425C288.791 522.629 286.202 517.394 285.508 511.693L267.698 362.786C267.299 359.449 267.564 356.059 268.475 352.841C269.386 349.624 270.922 346.652 272.981 344.126C275.04 341.6 277.575 339.576 280.416 338.19C283.257 336.804 286.34 336.088 289.458 336.088H497.064C502.392 336.1 507.536 338.199 511.538 341.996C515.54 345.792 518.129 351.027 518.823 356.728L536.614 505.635C537.013 508.97 536.749 512.358 535.839 515.575C534.929 518.791 533.394 521.761 531.337 524.287C529.28 526.813 526.748 528.837 523.909 530.225C521.071 531.612 517.99 532.33 514.874 532.332ZM289.458 336.611C286.408 336.611 283.393 337.312 280.614 338.668C277.835 340.023 275.355 342.002 273.34 344.473C271.326 346.944 269.822 349.849 268.929 352.996C268.036 356.143 267.775 359.459 268.163 362.724L285.973 511.63C286.653 517.207 289.188 522.328 293.105 526.04C297.022 529.752 302.055 531.803 307.268 531.81H514.874C517.925 531.814 520.941 531.115 523.722 529.76C526.502 528.405 528.983 526.426 530.999 523.955C533.014 521.484 534.518 518.577 535.409 515.428C536.301 512.28 536.56 508.962 536.169 505.697L518.378 356.812C517.702 351.231 515.169 346.105 511.252 342.389C507.335 338.672 502.299 336.619 497.083 336.611H289.458Z" fill="#407BFF"/>
                            <path d="M438.154 669.102L453.351 678.69L476.292 642.174L461.095 632.564L438.154 669.102Z" fill="#E4897B"/>
                            <path d="M453.893 678.147L441.407 661.581C441.196 661.292 440.895 661.096 440.559 661.031C440.224 660.965 439.878 661.035 439.587 661.226L426.036 670C425.701 670.234 425.416 670.543 425.198 670.904C424.981 671.265 424.837 671.672 424.775 672.098C424.713 672.523 424.734 672.958 424.838 673.374C424.942 673.79 425.126 674.178 425.378 674.512C429.83 680.194 432.25 682.701 437.748 689.992C441.116 694.483 447.679 704.135 452.364 710.318C457.049 716.502 462.953 711.843 461.521 708.814C455.094 695.235 454.842 687.924 454.939 681.343C454.955 680.177 454.584 679.044 453.893 678.147Z" fill="#263238"/>
                            <path d="M459.604 688.53H459.236C456.758 688.112 454.126 683.432 452.79 680.696C452.761 680.639 452.749 680.573 452.756 680.509C452.764 680.444 452.789 680.384 452.829 680.336C452.87 680.287 452.923 680.254 452.982 680.24C453.041 680.226 453.102 680.232 453.158 680.257C453.971 680.633 461.134 684.038 461.579 686.524C461.617 686.748 461.601 686.979 461.534 687.195C461.466 687.41 461.348 687.604 461.192 687.757C460.99 687.995 460.744 688.186 460.472 688.319C460.199 688.452 459.904 688.524 459.604 688.53ZM453.797 681.176C455.829 685.125 457.92 687.61 459.411 687.861C459.675 687.911 459.948 687.887 460.202 687.792C460.456 687.697 460.683 687.534 460.863 687.318C460.945 687.233 461.007 687.128 461.044 687.012C461.081 686.895 461.092 686.771 461.076 686.649C460.708 684.978 456.197 682.409 453.797 681.176Z" fill="#407BFF"/>
                            <path d="M458.752 681.97C456.758 681.953 454.786 681.52 452.945 680.696C452.899 680.675 452.86 680.64 452.832 680.596C452.804 680.551 452.79 680.499 452.79 680.445C452.781 680.389 452.787 680.332 452.808 680.28C452.828 680.228 452.863 680.184 452.906 680.153C453.08 680.027 456.991 677.165 459.759 677.75C460.153 677.83 460.527 677.995 460.86 678.236C461.193 678.477 461.477 678.787 461.695 679.15C462.295 680.132 462.063 680.758 461.695 681.093C460.853 681.779 459.801 682.092 458.752 681.97ZM453.661 680.362C456.042 681.385 460.417 681.74 461.308 680.675C461.308 680.57 461.637 680.278 461.153 679.505C460.982 679.211 460.756 678.958 460.489 678.764C460.223 678.57 459.921 678.438 459.604 678.377C457.473 678.387 455.397 679.11 453.661 680.445V680.362Z" fill="#407BFF"/>
                            <path d="M414.304 381.42L415.04 384.596L415.872 388.022C416.434 390.32 417.072 392.639 417.711 394.957C419.002 399.595 420.363 404.226 421.796 408.849C423.306 413.445 424.758 418.083 426.403 422.658C427.197 424.935 427.991 427.254 428.823 429.531L429.811 432.268C430.017 432.739 430.277 433.181 430.585 433.584C432.999 436.206 435.93 438.205 439.161 439.433C443.124 441.171 447.209 442.568 451.377 443.611C455.674 444.697 460.088 445.596 464.56 446.348C469.032 447.1 473.62 447.685 478.111 448.207L478.266 458.046C468.613 459.13 458.881 459.13 449.228 458.046C444.175 457.499 439.179 456.457 434.302 454.934C431.639 454.079 429.049 452.982 426.558 451.654C423.704 450.164 421.089 448.189 418.815 445.805C417.498 444.391 416.359 442.797 415.427 441.062C415.165 440.61 414.926 440.143 414.711 439.663L414.265 438.681L413.491 436.947C412.446 434.628 411.4 432.309 410.432 429.949C408.496 425.227 406.56 420.485 404.857 415.639C403.153 410.792 401.508 405.904 400.036 401.016C399.32 398.509 398.643 395.981 398.101 393.432L397.171 389.547C396.9 388.189 396.649 387.019 396.378 385.369L414.304 381.42Z" fill="#E4897B"/>
                            <path d="M408.554 360.718C415.814 362.703 420.906 394.957 420.906 394.957L400.888 409.581C400.888 409.581 381.703 377.054 387.337 368.427C393.106 359.527 397.965 357.793 408.554 360.718Z" fill="#407BFF"/>
                            <path opacity="0.2" d="M408.554 360.718C415.814 362.703 420.906 394.957 420.906 394.957L400.888 409.581C400.888 409.581 381.703 377.054 387.337 368.427C393.106 359.527 397.965 357.793 408.554 360.718Z" fill="black"/>
                            <path d="M409.271 372.438L393.784 376.323L392.293 392.722C394.929 398.518 397.836 404.166 401.004 409.643L413.143 400.744C412.504 393.203 411.207 377.535 409.271 372.438Z" fill="#407BFF"/>
                            <path opacity="0.3" d="M409.271 372.438L393.784 376.323L392.293 392.722C394.929 398.518 397.836 404.166 401.004 409.643L413.143 400.744C412.504 393.203 411.207 377.535 409.271 372.438Z" fill="black"/>
                            <path d="M475.44 447.998L487.926 434.336L489.572 453.576C489.572 453.576 480.202 460.428 473.717 456.751L475.44 447.998Z" fill="#E4897B"/>
                            <path d="M502.62 432.268L503.181 448.479L489.572 453.555L487.926 434.315L502.62 432.268Z" fill="#E4897B"/>
                            <path d="M413.084 706.683H430.701L436.373 662.646H418.737L413.084 706.683Z" fill="#E4897B"/>
                            <path d="M431.863 701.001L414.44 690.953C414.142 690.777 413.794 690.724 413.462 690.805C413.131 690.885 412.838 691.094 412.639 691.392L403.289 705.158C403.066 705.515 402.915 705.919 402.846 706.343C402.777 706.767 402.791 707.202 402.888 707.619C402.985 708.037 403.162 708.428 403.407 708.767C403.653 709.106 403.962 709.385 404.315 709.587C410.452 712.971 413.588 714.267 421.273 718.674C425.997 721.39 437.845 728.89 444.388 732.65C450.931 736.41 454.687 729.621 452.286 727.428C441.504 717.609 436.277 709.608 434.012 703.529C433.603 702.433 432.84 701.534 431.863 701.001Z" fill="#263238"/>
                            <path d="M334.642 286.453C334.196 307.343 310.501 298.715 307.849 322.781C306.358 336.297 291.181 337.697 288.49 349.939C285.857 361.783 296.562 370.39 288.49 385.139C277.687 404.88 271.647 439.308 332.26 442.88C377.328 445.533 393.183 396.127 385.536 365.774C377.89 335.42 373.631 330.74 382.013 322.384C390.396 314.028 403.831 309.85 399.533 284.322C396.203 264.581 388.111 266.899 388.111 266.899C387.705 255.995 335.706 239.972 334.642 286.453Z" fill="#263238"/>
                            <path d="M476.292 642.174L464.463 660.996L449.247 651.407L461.075 632.564L476.292 642.174Z" fill="#CE6F64"/>
                            <path d="M418.737 662.667H436.373L433.431 685.354H415.814L418.737 662.667Z" fill="#CE6F64"/>
                            <path d="M408.554 360.718C408.554 360.718 416.956 363.914 400.133 475.469H328.505C329.705 444.133 329.724 424.663 315.805 360.154C325.827 357.929 335.985 356.491 346.199 355.851C357.02 355.014 367.882 355.014 378.703 355.851C392.719 357.229 408.554 360.718 408.554 360.718Z" fill="#407BFF"/>
                            <path opacity="0.2" d="M408.554 360.718C408.554 360.718 416.956 363.914 400.133 475.469H328.505C329.705 444.133 329.724 424.663 315.805 360.154C325.827 357.929 335.985 356.491 346.199 355.851C357.02 355.014 367.882 355.014 378.703 355.851C392.719 357.229 408.554 360.718 408.554 360.718Z" fill="black"/>
                            <path d="M349.49 316.389C351.542 327.67 353.594 348.33 346.276 355.872C346.276 355.872 349.142 367.319 368.559 367.319C387.26 367.319 378.78 355.872 378.78 355.872C367.165 352.863 367.417 343.525 369.449 334.751L349.49 316.389Z" fill="#E4897B"/>
                            <path d="M357.621 323.868L369.43 334.731C368.931 336.784 368.601 338.881 368.443 340.998C363.971 340.308 357.853 335.023 357.389 329.988C357.127 327.95 357.206 325.877 357.621 323.868Z" fill="#CE6F64"/>
                            <path d="M348.27 286.641C346.334 305.442 345.018 313.255 352.142 324.452C362.828 341.29 384.607 339.869 391.77 322.154C398.217 306.215 400.443 278.285 384.84 267.61C381.411 265.245 377.479 263.866 373.417 263.603C369.355 263.341 365.298 264.205 361.633 266.113C357.968 268.02 354.816 270.908 352.477 274.501C350.138 278.094 348.69 282.273 348.27 286.641Z" fill="#E4897B"/>
                            <path d="M348.174 297.713C350.632 302.643 388.266 280.186 383.988 268.132C379.71 256.078 368.501 260.444 368.501 260.444C368.501 260.444 348.619 265.333 345.27 276.467C341.921 287.602 348.174 297.713 348.174 297.713Z" fill="#263238"/>
                            <path d="M340.933 299.864C341.282 303.483 342.895 306.822 345.444 309.202C348.851 312.315 352.239 309.537 352.704 305.024C353.129 300.993 351.871 294.579 347.786 293.117C343.702 291.655 340.546 295.498 340.933 299.864Z" fill="#E4897B"/>
                            <path d="M400.133 475.469C400.133 475.469 511.525 487.042 510.364 545.013C509.163 605.323 469.032 659.638 469.032 659.638L447.989 646.791C447.989 646.791 471.22 593.708 470.019 557.547C469.051 526.629 362.228 520.696 362.228 520.696L347.496 475.469H400.133Z" fill="#407BFF"/>
                            <path opacity="0.6" d="M400.133 475.469C400.133 475.469 511.525 487.042 510.364 545.013C509.163 605.323 469.032 659.638 469.032 659.638L447.989 646.791C447.989 646.791 471.22 593.708 470.019 557.547C469.051 526.629 362.228 520.696 362.228 520.696L347.496 475.469H400.133Z" fill="#FAFAFA"/>
                            <path d="M438.948 509.458L441.194 534.108C456.778 539.372 468.761 546.642 469.942 556.377C472.575 534.568 458.481 521.678 438.948 509.458Z" fill="#407BFF"/>
                            <path opacity="0.4" d="M438.948 509.458L441.194 534.108C456.778 539.372 468.761 546.642 469.942 556.377C472.575 534.568 458.481 521.678 438.948 509.458Z" fill="#FAFAFA"/>
                            <path d="M381.239 475.469C381.239 475.469 457.668 502.793 459.604 536.615C463.166 598.889 437.786 680.967 437.786 680.967H413.665C413.665 680.967 415.02 626.506 417.905 570.081C421.506 499.2 305.622 569.099 328.582 475.469H381.239Z" fill="#407BFF"/>
                            <path opacity="0.6" d="M381.239 475.469C381.239 475.469 457.668 502.793 459.604 536.615C463.166 598.889 437.786 680.967 437.786 680.967H413.665C413.665 680.967 415.02 626.506 417.905 570.081C421.506 499.2 305.622 569.099 328.582 475.469H381.239Z" fill="#FAFAFA"/>
                            <path d="M373.476 296.856C373.224 298.36 373.766 299.718 374.676 299.906C375.586 300.094 376.612 298.987 376.786 297.483C376.961 295.979 376.496 294.6 375.586 294.433C374.676 294.266 373.728 295.331 373.476 296.856Z" fill="#263238"/>
                            <path d="M389.273 299.906C389.041 301.41 389.563 302.768 390.492 302.956C391.422 303.144 392.428 302.058 392.603 300.533C392.777 299.008 392.312 297.671 391.383 297.483C390.454 297.295 389.525 298.381 389.273 299.906Z" fill="#263238"/>
                            <path d="M390.976 297.587L394.5 297.191C394.5 297.191 392.312 299.677 390.976 297.587Z" fill="#263238"/>
                            <path d="M384.665 301.766C385.33 305.391 386.444 308.905 387.976 312.211C387.168 312.611 386.29 312.818 385.401 312.818C384.512 312.818 383.634 312.611 382.826 312.211L384.665 301.766Z" fill="#DE5753"/>
                            <path d="M374.85 316.263H374.734C371.921 314.836 369.719 312.303 368.578 309.182C368.566 309.146 368.561 309.108 368.564 309.07C368.566 309.033 368.576 308.996 368.592 308.962C368.609 308.929 368.631 308.9 368.659 308.876C368.687 308.853 368.718 308.836 368.752 308.827C368.784 308.813 368.818 308.807 368.852 308.809C368.886 308.81 368.919 308.819 368.95 308.834C368.981 308.85 369.008 308.872 369.031 308.899C369.053 308.927 369.071 308.959 369.081 308.994C370.173 311.943 372.244 314.349 374.889 315.741C374.952 315.773 375.001 315.83 375.027 315.9C375.052 315.97 375.051 316.048 375.025 316.117C375.007 316.153 374.982 316.185 374.952 316.21C374.922 316.236 374.887 316.254 374.85 316.263Z" fill="#263238"/>
                            <path d="M371.714 290.088C371.639 290.088 371.565 290.069 371.498 290.033C371.431 289.996 371.372 289.944 371.327 289.879C371.274 289.83 371.231 289.769 371.202 289.7C371.173 289.632 371.158 289.557 371.158 289.482C371.158 289.407 371.173 289.332 371.202 289.263C371.231 289.195 371.274 289.134 371.327 289.085C372.262 288.156 373.39 287.482 374.616 287.118C375.841 286.755 377.13 286.713 378.374 286.996C378.51 287.035 378.626 287.13 378.697 287.262C378.768 287.393 378.787 287.549 378.751 287.696C378.715 287.843 378.627 287.968 378.505 288.044C378.383 288.121 378.239 288.142 378.103 288.103C377.022 287.871 375.906 287.923 374.848 288.254C373.791 288.585 372.822 289.185 372.024 290.004C371.93 290.064 371.823 290.093 371.714 290.088Z" fill="#263238"/>
                            <path d="M397.907 293.117C397.804 293.109 397.706 293.072 397.621 293.01C397.536 292.947 397.467 292.862 397.423 292.762C397.011 291.665 396.365 290.688 395.538 289.911C394.71 289.134 393.724 288.579 392.661 288.291C392.52 288.266 392.394 288.181 392.311 288.056C392.227 287.931 392.193 287.775 392.215 287.623C392.244 287.475 392.324 287.344 392.439 287.258C392.555 287.173 392.697 287.138 392.835 287.163C394.076 287.473 395.23 288.102 396.198 288.996C397.165 289.891 397.918 291.025 398.391 292.302C398.423 292.37 398.441 292.444 398.444 292.52C398.448 292.596 398.436 292.672 398.411 292.743C398.385 292.814 398.346 292.878 398.296 292.932C398.246 292.986 398.186 293.027 398.12 293.054C398.056 293.097 397.982 293.119 397.907 293.117Z" fill="#263238"/>
                            <path d="M438.464 707.77C436.393 707.77 433.586 705.43 432.018 703.926C431.97 703.889 431.935 703.836 431.918 703.776C431.9 703.716 431.901 703.651 431.921 703.592C431.938 703.532 431.971 703.478 432.016 703.438C432.06 703.397 432.115 703.371 432.172 703.362C432.889 703.362 439.18 702.735 440.497 704.594C440.638 704.79 440.729 705.023 440.76 705.269C440.79 705.515 440.76 705.765 440.671 705.994C440.564 706.397 440.364 706.763 440.09 707.059C439.816 707.355 439.476 707.571 439.103 707.686C438.893 707.737 438.679 707.765 438.464 707.77ZM432.927 703.947C435.483 706.245 437.69 707.415 438.948 707.059C439.228 706.975 439.482 706.813 439.686 706.589C439.89 706.366 440.036 706.088 440.11 705.785C440.183 705.668 440.222 705.53 440.222 705.388C440.222 705.247 440.183 705.109 440.11 704.991C439.18 703.78 435.115 703.801 432.927 703.947Z" fill="#407BFF"/>
                            <path d="M432.211 704.009C432.158 704.014 432.105 704 432.06 703.97C432.015 703.94 431.98 703.895 431.959 703.842C431.936 703.794 431.923 703.74 431.923 703.685C431.923 703.631 431.936 703.577 431.959 703.529C432.056 703.341 434.437 698.557 436.877 697.93C437.17 697.839 437.478 697.823 437.778 697.885C438.077 697.947 438.359 698.084 438.6 698.285C438.872 698.437 439.086 698.689 439.203 698.995C439.32 699.301 439.332 699.641 439.239 699.957C438.716 701.878 434.36 703.947 432.23 704.009H432.211ZM437.399 698.494H436.993C435.251 698.933 433.431 702.004 432.734 703.236C434.767 702.902 438.251 701.147 438.658 699.706C438.658 699.476 438.755 699.121 438.251 698.745C437.998 698.568 437.701 698.48 437.399 698.494Z" fill="#407BFF"/>
                            <path d="M375.16 294.433L378.703 294.036C378.703 294.036 376.496 296.543 375.16 294.433Z" fill="#263238"/>
                            <path d="M327.498 470.977L326.937 477.892C326.685 478.435 327.266 478.978 328.098 478.978H400.482C401.14 478.978 401.663 478.644 401.701 478.206L402.36 471.291C402.36 470.81 401.837 470.392 401.14 470.392H328.66C328.436 470.379 328.214 470.425 328.011 470.527C327.808 470.629 327.632 470.784 327.498 470.977Z" fill="#263238"/>
                            <path d="M337.236 479.689H335.3C334.913 479.689 334.622 479.48 334.642 479.208L335.552 470.225C335.552 469.954 335.919 469.745 336.307 469.745H338.242C338.63 469.745 338.92 469.954 338.901 470.225L337.991 479.208C337.952 479.48 337.642 479.689 337.236 479.689Z" fill="#407BFF"/>
                            <path opacity="0.6" d="M337.236 479.689H335.3C334.913 479.689 334.622 479.48 334.642 479.208L335.552 470.225C335.552 469.954 335.919 469.745 336.307 469.745H338.242C338.63 469.745 338.92 469.954 338.901 470.225L337.991 479.208C337.952 479.48 337.642 479.689 337.236 479.689Z" fill="#FAFAFA"/>
                            <path d="M395.042 479.689H393.106C392.719 479.689 392.428 479.48 392.467 479.208L393.377 470.225C393.377 469.954 393.725 469.745 394.113 469.745H396.049C396.436 469.745 396.726 469.954 396.687 470.225L395.777 479.208C395.719 479.48 395.429 479.689 395.042 479.689Z" fill="#407BFF"/>
                            <path opacity="0.6" d="M395.042 479.689H393.106C392.719 479.689 392.428 479.48 392.467 479.208L393.377 470.225C393.377 469.954 393.725 469.745 394.113 469.745H396.049C396.436 469.745 396.726 469.954 396.687 470.225L395.777 479.208C395.719 479.48 395.429 479.689 395.042 479.689Z" fill="#FAFAFA"/>
                            <path d="M366.139 479.689H364.203C363.816 479.689 363.506 479.48 363.545 479.208L364.455 470.225C364.455 469.954 364.822 469.745 365.21 469.745H367.145C367.533 469.745 367.823 469.954 367.804 470.225L366.894 479.208C366.855 479.48 366.526 479.689 366.139 479.689Z" fill="#407BFF"/>
                            <path opacity="0.6" d="M366.139 479.689H364.203C363.816 479.689 363.506 479.48 363.545 479.208L364.455 470.225C364.455 469.954 364.822 469.745 365.21 469.745H367.145C367.533 469.745 367.823 469.954 367.804 470.225L366.894 479.208C366.855 479.48 366.526 479.689 366.139 479.689Z" fill="#FAFAFA"/>
                            <path d="M332.725 390.111L323.491 398.592C325.427 409.873 326.782 419.274 327.634 427.63C329.357 419.253 333.771 396.524 332.725 390.111Z" fill="#407BFF"/>
                            <path opacity="0.3" d="M332.725 390.111L323.491 398.592C325.427 409.873 326.782 419.274 327.634 427.63C329.357 419.253 333.771 396.524 332.725 390.111Z" fill="black"/>
                            <path d="M528.348 422.094H402.766L384.569 502.125H510.151L528.348 422.094Z" fill="#FAFAFA"/>
                            <path d="M464.715 487.23L387.918 506.554L338.63 491.638L339.133 487.23H464.715Z" fill="#FAFAFA"/>
                            <path d="M326.569 387.667C325.078 392.994 323.452 398.488 322 403.919C320.548 409.351 319.019 414.824 317.702 420.276C316.386 425.729 315.128 431.16 314.16 436.487C313.695 439.14 313.25 441.794 312.96 444.3C312.752 446.061 312.643 447.832 312.63 449.607C313.056 451.029 313.785 452.325 314.76 453.388C316.229 455.108 317.857 456.662 319.619 458.025C323.649 461.123 327.902 463.868 332.338 466.235C336.887 468.763 341.65 471.061 346.509 473.192C351.368 475.323 356.324 477.37 361.183 479.459L358.937 488.901C353.381 487.961 348.096 486.624 342.714 485.183C337.333 483.741 332.086 481.84 326.801 479.751C321.34 477.597 316.078 474.897 311.082 471.688C308.305 469.895 305.71 467.795 303.338 465.421C300.358 462.518 298.102 458.855 296.775 454.766C296.411 453.521 296.158 452.241 296.02 450.944V449.941V449.189V447.852C296.02 446.097 296.02 444.426 296.02 442.775C296.175 439.517 296.504 436.508 296.93 433.375C297.724 427.275 298.866 421.384 300.066 415.576C302.538 404.018 305.556 392.604 309.107 381.379L326.569 387.667Z" fill="#E4897B"/>
                            <path d="M315.883 360.258C308.72 362.619 297.743 392.994 297.743 392.994L325.562 414.448C325.562 414.448 338.068 388.481 335.048 378.475C331.835 367.967 324.091 357.48 315.883 360.258Z" fill="#407BFF"/>
                            <path opacity="0.2" d="M315.883 360.258C308.72 362.619 297.743 392.994 297.743 392.994L325.562 414.448C325.562 414.448 338.068 388.481 335.048 378.475C331.835 367.967 324.091 357.48 315.883 360.258Z" fill="black"/>
                            <path d="M357.563 480.044L374.289 475.469L366.313 492.787C366.313 492.787 355.027 493.309 351.29 486.52L357.563 480.044Z" fill="#E4897B"/>
                            <path d="M387.782 482.049L380.387 496.171L366.313 492.787L374.289 475.469L387.782 482.049Z" fill="#E4897B"/>
                            <path d="M532.22 422.094H406.638L388.44 502.125H514.022L532.22 422.094Z" fill="#263238"/>
                            <path d="M514.022 502.125L513.519 506.554H387.918L388.421 502.125H514.022Z" fill="#263238"/>
                            <path d="M380.987 275.485C397.907 282.797 399.301 293.305 398.41 285.931C397.133 275.339 388.982 267.714 383.136 265.145C379.709 263.599 373.592 272.289 380.987 275.485Z" fill="#263238"/>
                            <path d="M349.451 285.053L348.309 286.495C348.13 286.693 348.031 286.959 348.031 287.236C348.031 287.513 348.13 287.779 348.309 287.978L357.447 296.961C357.629 297.141 357.867 297.241 358.114 297.241C358.362 297.241 358.6 297.141 358.782 296.961L360.35 295.394C360.454 295.294 360.537 295.172 360.593 295.035C360.65 294.898 360.679 294.75 360.679 294.6C360.679 294.45 360.65 294.302 360.593 294.165C360.537 294.029 360.454 293.906 360.35 293.806L350.768 284.949C350.575 284.788 350.334 284.709 350.091 284.729C349.848 284.748 349.62 284.864 349.451 285.053Z" fill="#407BFF"/>
                            <path opacity="0.3" d="M349.451 285.053L348.309 286.495C348.13 286.693 348.031 286.959 348.031 287.236C348.031 287.513 348.13 287.779 348.309 287.978L357.447 296.961C357.629 297.141 357.867 297.241 358.114 297.241C358.362 297.241 358.6 297.141 358.782 296.961L360.35 295.394C360.454 295.294 360.537 295.172 360.593 295.035C360.65 294.898 360.679 294.75 360.679 294.6C360.679 294.45 360.65 294.302 360.593 294.165C360.537 294.029 360.454 293.906 360.35 293.806L350.768 284.949C350.575 284.788 350.334 284.709 350.091 284.729C349.848 284.748 349.62 284.864 349.451 285.053Z" fill="black"/>
                            <path d="M347.109 354.535C347.302 356.122 348.929 363.956 362.751 366.902C362.751 366.902 358.647 371.727 356.324 383.28C356.324 383.28 332.086 373.022 339.443 356.394C339.501 356.26 339.587 356.144 339.695 356.053C339.802 355.962 339.928 355.9 340.062 355.871L346.799 354.326C346.832 354.316 346.867 354.315 346.9 354.32C346.934 354.326 346.967 354.339 346.996 354.358C347.025 354.378 347.05 354.403 347.069 354.434C347.089 354.464 347.102 354.498 347.109 354.535Z" fill="#407BFF"/>
                            <path opacity="0.6" d="M347.109 354.535C347.302 356.122 348.929 363.956 362.751 366.902C362.751 366.902 358.647 371.727 356.324 383.28C356.324 383.28 332.086 373.022 339.443 356.394C339.501 356.26 339.587 356.144 339.695 356.053C339.802 355.962 339.928 355.9 340.062 355.871L346.799 354.326C346.832 354.316 346.867 354.315 346.9 354.32C346.934 354.326 346.967 354.339 346.996 354.358C347.025 354.378 347.05 354.403 347.069 354.434C347.089 354.464 347.102 354.498 347.109 354.535Z" fill="#FAFAFA"/>
                            <path d="M377.987 355.746C379.651 357.647 384.201 364.102 372.702 367.069C372.702 367.069 379.69 371.247 382.013 382.799C382.013 382.799 399.223 370.035 383.562 356.164C383.544 356.155 383.524 356.15 383.504 356.15C383.484 356.15 383.464 356.155 383.446 356.164L378.199 355.37C378.16 355.373 378.121 355.387 378.087 355.409C378.053 355.432 378.025 355.463 378.004 355.499C377.983 355.536 377.971 355.578 377.968 355.621C377.965 355.663 377.971 355.707 377.987 355.746Z" fill="#407BFF"/>
                            <path opacity="0.6" d="M377.987 355.746C379.651 357.647 384.201 364.102 372.702 367.069C372.702 367.069 379.69 371.247 382.013 382.799C382.013 382.799 399.223 370.035 383.562 356.164C383.544 356.155 383.524 356.15 383.504 356.15C383.484 356.15 383.464 356.155 383.446 356.164L378.199 355.37C378.16 355.373 378.121 355.387 378.087 355.409C378.053 355.432 378.025 355.463 378.004 355.499C377.983 355.536 377.971 355.578 377.968 355.621C377.965 355.663 377.971 355.707 377.987 355.746Z" fill="#FAFAFA"/>
                            <path d="M542.287 235.543C539.344 202.724 512.609 176.131 482.583 176.152C452.557 176.173 430.566 202.766 433.566 235.585C434.65 246.234 438.08 256.448 443.57 265.374C449.059 274.299 456.449 281.678 465.121 286.892L464.638 307.782L480.744 293.472C484.852 294.498 489.053 295.024 493.27 295.039C523.295 294.976 545.248 268.341 542.287 235.543Z" fill="#407BFF"/>
                            <path opacity="0.6" d="M542.287 235.543C539.344 202.724 512.609 176.131 482.583 176.152C452.557 176.173 430.566 202.766 433.566 235.585C434.65 246.234 438.08 256.448 443.57 265.374C449.059 274.299 456.449 281.678 465.121 286.892L464.638 307.782L480.744 293.472C484.852 294.498 489.053 295.024 493.27 295.039C523.295 294.976 545.248 268.341 542.287 235.543Z" fill="#FAFAFA"/>
                            <path d="M492.515 225.223C479.215 220.899 469.826 205.545 469.826 205.545C469.826 205.545 465.722 205.294 465.954 209.347C466.384 214.958 468.771 220.184 472.633 223.97L466.399 223.594C464.206 223.46 462.008 223.721 459.895 224.367L457.959 224.973C457.13 225.245 456.362 225.699 455.704 226.308C455.046 226.916 454.512 227.664 454.136 228.506C453.759 229.348 453.549 230.265 453.517 231.2C453.485 232.134 453.633 233.065 453.951 233.935L458.094 247.116C459.467 251.381 462.215 254.969 465.838 257.227C468.905 259.201 472.503 259.99 476.04 259.463C482.274 258.439 491.972 256.872 493.637 256.538L498.109 256.12L496.793 226.56L492.515 225.223Z" fill="#FAFAFA"/>
                            <path d="M515.9 260.11H498.477C497.806 260.085 497.166 259.802 496.672 259.311C496.179 258.821 495.864 258.155 495.786 257.436L492.766 223.803C492.728 223.466 492.756 223.125 492.849 222.801C492.943 222.478 493.099 222.179 493.308 221.926C493.517 221.673 493.774 221.471 494.061 221.333C494.348 221.196 494.659 221.126 494.973 221.129H512.396C513.073 221.149 513.72 221.434 514.218 221.929C514.717 222.424 515.032 223.097 515.106 223.824L518.126 257.436C518.162 257.774 518.131 258.116 518.035 258.439C517.939 258.763 517.781 259.061 517.571 259.313C517.36 259.566 517.102 259.768 516.814 259.905C516.527 260.042 516.215 260.112 515.9 260.11Z" fill="#407BFF"/>
                            <path d="M259.993 396.232L242.57 378.412C242.821 374.697 242.782 370.965 242.454 367.257C239.182 330.991 209.64 301.598 176.459 301.619C143.278 301.64 119.04 331.054 122.254 367.319C125.467 403.585 155.048 432.978 188.229 432.957C198.457 433.14 208.517 430.145 217.212 424.33C225.906 418.515 232.867 410.125 237.266 400.159L259.993 396.232Z" fill="#407BFF"/>
                            <path d="M210.221 343.797C201.142 334.751 187.745 334.772 180.311 343.797C171.232 334.772 157.836 334.772 150.382 343.797C142.929 352.822 144.245 367.487 153.325 376.511L186.235 409.205L213.202 376.49C220.617 367.466 219.3 352.822 210.221 343.797Z" fill="#407BFF"/>
                            <path opacity="0.6" d="M210.221 343.797C201.142 334.751 187.745 334.772 180.311 343.797C171.232 334.772 157.836 334.772 150.382 343.797C142.929 352.822 144.245 367.487 153.325 376.511L186.235 409.205L213.202 376.49C220.617 367.466 219.3 352.822 210.221 343.797Z" fill="#FAFAFA"/>
                            </svg>